<svg width="570" height="478" xmlns="http://www.w3.org/2000/svg" xmlns:xlink="http://www.w3.org/1999/xlink" xml:space="preserve" overflow="hidden"><defs><clipPath id="clip0"><rect x="2064" y="1199" width="570" height="478"/></clipPath></defs><g clip-path="url(#clip0)" transform="translate(-2064 -1199)"><path d="M2282.42 1513.11 2472.85 1387.87C2482.18 1381.73 2495.53 1384.12 2499.98 1393.66 2523.39 1443.95 2512.93 1504.4 2466.35 1545.9 2419.77 1587.4 2354.95 1596.5 2295.71 1575.77L2231 1602.47C2323.82 1658.99 2436.53 1645.01 2506.97 1582.22 2562.83 1532.44 2580.14 1464.6 2563.96 1403.41L2564.1 1403.54C2540.64 1313.66 2569.87 1277.73 2629.75 1204.27 2631.16 1202.53 2632.58 1200.79 2634 1199L2555.21 1269.2 2555.21 1268.98 2282.37 1513.15" fill="" fill-rule="evenodd"/><path d="M2238.45 1532.57C2174.56 1476.02 2185.58 1388.49 2240.09 1338.02 2280.4 1300.67 2346.44 1285.42 2404.08 1307.83L2466 1281.34C2454.85 1273.87 2440.55 1265.83 2424.15 1260.18 2350 1231.91 2261.23 1245.98 2200.95 1301.8 2142.98 1355.53 2124.74 1438.14 2156.05 1508.64 2179.44 1561.33 2141.1 1598.6 2102.48 1636.21 2088.79 1649.55 2075.06 1662.88 2064 1677L2238.4 1532.62" fill="" fill-rule="evenodd"/></g></svg>