<svg width="472" height="473" xmlns="http://www.w3.org/2000/svg" xmlns:xlink="http://www.w3.org/1999/xlink" xml:space="preserve" overflow="hidden"><g transform="translate(-389 -150)"><path d="M771.487 323.74 771.487 302.528 750.275 302.528" stroke="#BFBFBF" stroke-width="10.6059" stroke-linecap="round" stroke-linejoin="round" fill="none" transform="matrix(1 0 0 1.00211 -257.441 30.0434)"/><path d="M750.275 387.375 729.063 408.587 729.063 334.346C729.063 328.489 733.813 323.74 739.669 323.74L803.305 323.74C809.161 323.74 813.911 328.489 813.911 334.346L813.911 376.769C813.911 382.626 809.161 387.375 803.305 387.375Z" stroke="#BFBFBF" stroke-width="10.6059" stroke-linecap="round" stroke-linejoin="round" fill="none" transform="matrix(1 0 0 1.00211 -257.441 30.0434)"/><path d="M718.458 355.558 729.063 355.558" stroke="#BFBFBF" stroke-width="10.6059" stroke-linecap="round" stroke-linejoin="round" fill="none" transform="matrix(1 0 0 1.00211 -257.441 30.0434)"/><path d="M755.58 350.256 755.58 360.862" stroke="#BFBFBF" stroke-width="10.6059" stroke-linecap="round" stroke-linejoin="round" fill="none" transform="matrix(1 0 0 1.00211 -257.441 30.0434)"/><path d="M787.395 350.256 787.395 360.862" stroke="#BFBFBF" stroke-width="10.6059" stroke-linecap="round" stroke-linejoin="round" fill="none" transform="matrix(1 0 0 1.00211 -257.441 30.0434)"/><path d="M813.911 355.558 824.517 355.558" stroke="#BFBFBF" stroke-width="10.6059" stroke-linecap="round" stroke-linejoin="round" fill="none" transform="matrix(1 0 0 1.00211 -257.441 30.0434)"/><path d="M377.627 0C403.695 0 424.83 0 424.83 0L424.83 425.126C424.83 425.126 403.695 425.126 377.627 425.126L47.2033 425.126C21.1336 425.126 0 425.126 0 425.126L0 0C0 0 21.1336 0 47.2033 0Z" stroke="#BFBFBF" stroke-width="47.1656" stroke-linecap="round" stroke-linejoin="round" stroke-miterlimit="10" fill="none" fill-rule="evenodd" transform="matrix(-1 0 0 1.00211 837.415 173.488)"/><path d="M0 0 0 425.126" stroke="#BFBFBF" stroke-width="47.1656" stroke-linecap="round" stroke-linejoin="round" stroke-miterlimit="10" fill="none" fill-rule="evenodd" transform="matrix(-1 0 0 1.00211 615.21 173.488)"/><path d="M70.9038 141.511 0 70.7555 70.9038 0" stroke="#BFBFBF" stroke-width="47.1656" stroke-linecap="round" stroke-linejoin="round" stroke-miterlimit="10" fill="none" fill-rule="evenodd" transform="matrix(-1 0 0 1.00211 743.074 315.595)"/></g></svg>