<svg width="578" height="578" xmlns="http://www.w3.org/2000/svg" xmlns:xlink="http://www.w3.org/1999/xlink" xml:space="preserve" overflow="hidden"><g transform="translate(-1889 -1226)"><path d="M462.222 0C494.132 0 520 0 520 0L520 520C520 520 494.132 520 462.222 520L57.7777 520C25.8678 520 0 520 0 520L0 0C0 0 25.8678 0 57.7777 0Z" stroke="#A6A6A6" stroke-width="57.5782" stroke-linecap="round" stroke-linejoin="round" stroke-miterlimit="10" fill="none" fill-rule="evenodd" transform="matrix(-1 0 0 1 2438 1255)"/><path d="M0 0 0 520" stroke="#A6A6A6" stroke-width="57.5782" stroke-linecap="round" stroke-linejoin="round" stroke-miterlimit="10" fill="none" fill-rule="evenodd" transform="matrix(-1 0 0 1 2171 1255)"/><path d="M86.0003 174 0 87 86.0003 0" stroke="#A6A6A6" stroke-width="57.5782" stroke-linecap="round" stroke-linejoin="round" stroke-miterlimit="10" fill="none" fill-rule="evenodd" transform="matrix(-1 0 0 1 2347 1428)"/><g><g><g><path d="M89.5 44.75 89.5 14.9167 59.6667 14.9167" stroke="#A6A6A6" stroke-width="14.9167" stroke-linecap="round" stroke-linejoin="round" fill="none" transform="matrix(1 0 0 1.00559 1955 1425)"/><path d="M59.6667 134.25 29.8333 164.083 29.8333 59.6667C29.8333 51.4284 36.5118 44.75 44.75 44.75L134.25 44.75C142.489 44.75 149.167 51.4284 149.167 59.6667L149.167 119.333C149.167 127.572 142.489 134.25 134.25 134.25Z" stroke="#A6A6A6" stroke-width="14.9167" stroke-linecap="round" stroke-linejoin="round" fill="none" transform="matrix(1 0 0 1.00559 1955 1425)"/><path d="M14.9167 89.5 29.8333 89.5" stroke="#A6A6A6" stroke-width="14.9167" stroke-linecap="round" stroke-linejoin="round" fill="none" transform="matrix(1 0 0 1.00559 1955 1425)"/><path d="M67.125 82.0417 67.125 96.9584" stroke="#A6A6A6" stroke-width="14.9167" stroke-linecap="round" stroke-linejoin="round" fill="none" transform="matrix(1 0 0 1.00559 1955 1425)"/><path d="M111.875 82.0417 111.875 96.9584" stroke="#A6A6A6" stroke-width="14.9167" stroke-linecap="round" stroke-linejoin="round" fill="none" transform="matrix(1 0 0 1.00559 1955 1425)"/><path d="M149.167 89.5 164.083 89.5" stroke="#A6A6A6" stroke-width="14.9167" stroke-linecap="round" stroke-linejoin="round" fill="none" transform="matrix(1 0 0 1.00559 1955 1425)"/></g></g></g></g></svg>