<svg width="1591" height="1592" xmlns="http://www.w3.org/2000/svg" xmlns:xlink="http://www.w3.org/1999/xlink" xml:space="preserve" overflow="hidden"><g transform="translate(-2179 -403)"><g><g><g><path d="M2600.5 1091.25 2600.5 1019.75 2529 1019.75" stroke="#BFBFBF" stroke-width="35.75" stroke-linecap="round" stroke-linejoin="round" fill="none"/><path d="M2529 1305.75 2457.5 1377.25 2457.5 1127C2457.5 1107.26 2473.51 1091.25 2493.25 1091.25L2707.75 1091.25C2727.49 1091.25 2743.5 1107.26 2743.5 1127L2743.5 1270C2743.5 1289.74 2727.49 1305.75 2707.75 1305.75Z" stroke="#BFBFBF" stroke-width="35.75" stroke-linecap="round" stroke-linejoin="round" fill="none"/><path d="M2421.75 1198.5 2457.5 1198.5" stroke="#BFBFBF" stroke-width="35.75" stroke-linecap="round" stroke-linejoin="round" fill="none"/><path d="M2546.88 1180.63 2546.88 1216.38" stroke="#BFBFBF" stroke-width="35.75" stroke-linecap="round" stroke-linejoin="round" fill="none"/><path d="M2654.12 1180.63 2654.12 1216.38" stroke="#BFBFBF" stroke-width="35.75" stroke-linecap="round" stroke-linejoin="round" fill="none"/><path d="M2743.5 1198.5 2779.25 1198.5" stroke="#BFBFBF" stroke-width="35.75" stroke-linecap="round" stroke-linejoin="round" fill="none"/></g></g></g><path d="M1272.89 0C1360.76 0 1432 0 1432 0L1432 1433C1432 1433 1360.76 1433 1272.89 1433L159.111 1433C71.2365 1433 0 1433 0 1433L0 0C0 0 71.2365 0 159.111 0Z" stroke="#BFBFBF" stroke-width="158.984" stroke-linecap="round" stroke-linejoin="round" stroke-miterlimit="10" fill="none" fill-rule="evenodd" transform="matrix(-1 0 0 1 3690.5 482.5)"/><path d="M0 0 0 1433" stroke="#BFBFBF" stroke-width="158.984" stroke-linecap="round" stroke-linejoin="round" stroke-miterlimit="10" fill="none" fill-rule="evenodd" transform="matrix(-1 0 0 1 2941.5 482.5)"/><path d="M239 477 0 238.5 239 0" stroke="#BFBFBF" stroke-width="158.984" stroke-linecap="round" stroke-linejoin="round" stroke-miterlimit="10" fill="none" fill-rule="evenodd" transform="matrix(-1 0 0 1 3372.5 960.5)"/></g></svg>