<svg width="988" height="657" xmlns="http://www.w3.org/2000/svg" xmlns:xlink="http://www.w3.org/1999/xlink" xml:space="preserve" overflow="hidden"><defs><clipPath id="clip0"><rect x="571" y="909" width="988" height="657"/></clipPath><linearGradient x1="634.454" y1="1204.66" x2="1579.55" y2="1270.34" gradientUnits="userSpaceOnUse" spreadMethod="reflect" id="fill1"><stop offset="0" stop-color="#0064E1"/><stop offset="0.4" stop-color="#0064E1"/><stop offset="0.83" stop-color="#0073EE"/><stop offset="1" stop-color="#0082FB"/></linearGradient><linearGradient x1="713" y1="1486" x2="713" y2="909" gradientUnits="userSpaceOnUse" spreadMethod="reflect" id="fill2"><stop offset="0" stop-color="#0082FB"/><stop offset="0.5" stop-color="#0073ED"/><stop offset="1" stop-color="#0064E0"/></linearGradient></defs><g clip-path="url(#clip0)" transform="translate(-571 -909)"><path d="M677.716 1342.28C677.716 1380.05 685.996 1409.04 696.819 1426.59 711.009 1449.56 732.174 1459.3 753.751 1459.3 781.58 1459.3 807.04 1452.38 856.103 1384.45 895.409 1330 941.724 1253.56 972.886 1205.65L1025.66 1124.47C1062.32 1068.09 1104.75 1005.42 1153.4 962.936 1193.12 928.263 1235.97 909 1279.09 909 1351.48 909 1420.43 951 1473.21 1029.77 1530.96 1116.04 1559 1224.7 1559 1336.84 1559 1403.5 1545.88 1452.49 1523.54 1491.18 1501.97 1528.61 1459.91 1566 1389.17 1566L1389.17 1459.3C1449.74 1459.3 1464.86 1403.57 1464.86 1339.8 1464.86 1248.92 1443.69 1148.07 1397.07 1076 1363.98 1024.89 1321.1 993.653 1273.93 993.653 1222.91 993.653 1181.85 1032.18 1135.71 1100.87 1111.18 1137.37 1085.99 1181.84 1057.72 1232.03L1026.59 1287.24C964.056 1398.24 948.217 1423.52 916.951 1465.25 862.15 1538.31 815.354 1566 753.751 1566 680.671 1566 634.459 1534.32 605.839 1486.58 582.476 1447.67 571 1396.62 571 1338.46Z" fill="#0081FB" fill-rule="evenodd"/><path d="M655 1037.3C703.933 961.801 774.55 909 855.545 909 902.451 909 949.083 922.897 997.776 962.695 1051.04 1006.21 1107.81 1077.86 1178.63 1195.95L1204.03 1238.33C1265.33 1340.56 1300.21 1393.15 1320.62 1417.95 1346.87 1449.8 1365.26 1459.3 1389.14 1459.3 1449.72 1459.3 1464.84 1403.57 1464.84 1339.8L1559 1336.84C1559 1403.5 1545.87 1452.49 1523.54 1491.18 1501.96 1528.61 1459.9 1566 1389.14 1566 1345.16 1566 1306.19 1556.44 1263.1 1515.74 1229.97 1484.51 1191.24 1429.03 1161.45 1379.15L1072.83 1230.96C1028.36 1156.6 987.57 1101.15 963.962 1076.04 938.567 1049.03 905.922 1016.42 853.827 1016.42 811.663 1016.42 775.856 1046.04 745.891 1091.34Z" fill="url(#fill1)" fill-rule="evenodd"/><path d="M853.286 1016.32C811.226 1016.32 775.508 1045.9 745.616 1091.16 703.35 1155.11 677.47 1250.37 677.47 1341.84 677.47 1379.58 685.731 1408.54 696.529 1426.07L605.759 1486C582.449 1447.14 571 1396.14 571 1338.03 571 1232.36 599.931 1122.23 654.949 1037.18 703.762 961.748 774.205 909 855 909Z" fill="url(#fill2)" fill-rule="evenodd"/></g></svg>