<svg width="199" height="149" xmlns="http://www.w3.org/2000/svg" xmlns:xlink="http://www.w3.org/1999/xlink" xml:space="preserve" overflow="hidden"><defs><clipPath id="clip0"><rect x="1786" y="1162" width="199" height="149"/></clipPath></defs><g clip-path="url(#clip0)" transform="translate(-1786 -1162)"><path d="M1982.92 1174.53C1980.83 1173.46 1979.9 1175.46 1978.66 1176.49 1978.25 1176.8 1977.9 1177.24 1977.52 1177.62 1974.46 1180.99 1970.85 1183.19 1966.14 1182.91 1959.29 1182.53 1953.41 1184.73 1948.22 1190.05 1947.12 1183.46 1943.44 1179.54 1937.87 1177 1934.94 1175.7 1932.02 1174.39 1929.96 1171.54 1928.55 1169.48 1928.13 1167.21 1927.45 1164.98 1926.96 1163.64 1926.52 1162.27 1925 1162.03 1923.35 1161.79 1922.7 1163.19 1922.05 1164.36 1919.47 1169.21 1918.43 1174.53 1918.54 1179.89 1918.78 1192.01 1923.8 1201.66 1933.77 1208.53 1934.91 1209.29 1935.22 1210.08 1934.84 1211.25 1934.19 1213.62 1933.36 1215.88 1932.64 1218.25 1932.19 1219.77 1931.5 1220.11 1929.92 1219.46 1924.45 1217.12 1919.71 1213.69 1915.51 1209.5 1908.43 1202.52 1901.99 1194.79 1893.98 1188.75 1892.12 1187.34 1890.23 1186.04 1888.27 1184.8 1880.12 1176.73 1889.37 1170.1 1891.5 1169.31 1893.74 1168.48 1892.26 1165.67 1885.04 1165.67 1877.81 1165.7 1871.21 1168.18 1862.75 1171.47 1861.55 1171.95 1860.24 1172.33 1858.9 1172.61 1851.26 1171.13 1843.32 1170.82 1834.99 1171.75 1819.38 1173.53 1806.89 1181.06 1797.71 1193.87 1786.67 1209.29 1784.09 1226.84 1787.26 1245.11 1790.59 1264.38 1800.26 1280.32 1815.11 1292.79 1830.52 1305.74 1848.27 1312.06 1868.49 1310.86 1880.81 1310.13 1894.5 1308.45 1909.9 1295.16 1913.83 1297.12 1917.88 1297.91 1924.66 1298.52 1929.89 1299.01 1934.91 1298.25 1938.83 1297.43 1944.92 1296.12 1944.51 1290.38 1942.27 1289.32 1924.42 1280.87 1928.34 1284.3 1924.76 1281.52 1933.84 1270.57 1947.53 1259.23 1952.9 1222.44 1953.31 1219.53 1952.97 1217.67 1952.9 1215.3 1952.86 1213.86 1953.17 1213.31 1954.79 1213.14 1959.29 1212.62 1963.63 1211.38 1967.62 1209.15 1979.17 1202.69 1983.85 1192.15 1984.95 1179.48 1985.12 1177.52 1984.92 1175.53 1982.92 1174.53ZM1882.01 1288.53C1864.71 1274.69 1856.32 1270.12 1852.84 1270.33 1849.61 1270.53 1850.16 1274.28 1850.88 1276.75 1851.64 1279.19 1852.6 1280.87 1853.98 1283 1854.91 1284.41 1855.56 1286.5 1853.02 1288.08 1847.45 1291.59 1837.75 1286.88 1837.3 1286.67 1826.02 1279.91 1816.59 1270.98 1809.92 1258.75 1803.52 1247 1799.77 1234.4 1799.16 1220.97 1799.02 1217.7 1799.95 1216.57 1803.11 1215.95 1807.31 1215.2 1811.61 1215.03 1815.8 1215.64 1833.48 1218.25 1848.51 1226.29 1861.13 1239.03 1868.36 1246.28 1873.79 1254.97 1879.4 1263.42 1885.38 1272.42 1891.78 1280.97 1899.96 1288.01 1902.85 1290.49 1905.16 1292.34 1907.36 1293.72 1900.72 1294.47 1889.61 1294.64 1882.01 1288.53ZM1890.33 1234.23C1890.33 1232.78 1891.47 1231.62 1892.88 1231.62 1893.22 1231.62 1893.5 1231.68 1893.77 1231.79 1894.12 1231.92 1894.46 1232.13 1894.7 1232.41 1895.15 1232.89 1895.42 1233.54 1895.42 1234.23 1895.42 1235.67 1894.29 1236.8 1892.85 1236.8 1891.44 1236.8 1890.33 1235.67 1890.33 1234.23ZM1916.1 1247.66C1914.44 1248.38 1912.79 1248.96 1911.21 1249.03 1908.74 1249.13 1906.05 1248.14 1904.61 1246.9 1902.34 1244.94 1900.72 1243.88 1900.03 1240.48 1899.72 1239.03 1899.9 1236.8 1900.17 1235.53 1900.76 1232.78 1900.1 1231 1898.18 1229.38 1896.63 1228.08 1894.63 1227.7 1892.47 1227.7 1891.68 1227.7 1890.92 1227.36 1890.37 1227.05 1889.44 1226.6 1888.72 1225.47 1889.41 1224.02 1889.65 1223.58 1890.75 1222.48 1891.02 1222.27 1893.95 1220.56 1897.35 1221.1 1900.52 1222.41 1903.44 1223.61 1905.64 1225.84 1908.8 1229.01 1912.07 1232.82 1912.66 1233.85 1914.48 1236.7 1915.96 1238.93 1917.26 1241.23 1918.19 1243.88 1918.74 1245.49 1918.02 1246.87 1916.1 1247.66Z" fill="#4D6BFE" fill-rule="evenodd"/></g></svg>