<svg width="314" height="315" xmlns="http://www.w3.org/2000/svg" xmlns:xlink="http://www.w3.org/1999/xlink" xml:space="preserve" overflow="hidden"><g transform="translate(-1313 -1697)"><path d="M295.16 160.271C295.16 150.066 294.244 140.253 292.543 130.833L157 130.833 157 186.568 234.453 186.568C231.052 204.492 220.847 219.669 205.539 229.874L205.539 266.115 252.247 266.115C279.46 240.995 295.16 204.1 295.16 160.271Z" fill="#4285F4" transform="matrix(1 0 0 1.00318 1313 1697)"/><path d="M157 300.917C195.857 300.917 228.435 288.095 252.247 266.115L205.539 229.874C192.717 238.509 176.363 243.742 157 243.742 119.582 243.742 87.7891 218.492 76.4066 184.475L28.5217 184.475 28.5217 221.632C52.2025 268.601 100.742 300.917 157 300.917Z" fill="#34A853" transform="matrix(1 0 0 1.00318 1313 1697)"/><path d="M76.4066 184.344C73.5283 175.709 71.8275 166.551 71.8275 157 71.8275 147.449 73.5283 138.291 76.4066 129.656L76.4066 92.4991 28.5217 92.4991C18.7092 111.862 13.0833 133.712 13.0833 157 13.0833 180.288 18.7092 202.137 28.5217 221.501L65.8091 192.456 76.4066 184.344Z" fill="#FBBC05" transform="matrix(1 0 0 1.00318 1313 1697)"/><path d="M157 70.3883C178.195 70.3883 197.035 77.715 212.081 91.8449L253.293 50.6325C228.304 27.3442 195.857 13.0833 157 13.0833 100.742 13.0833 52.2025 45.3991 28.5217 92.4991L76.4066 129.656C87.7891 95.6391 119.582 70.3883 157 70.3883Z" fill="#EA4335" transform="matrix(1 0 0 1.00318 1313 1697)"/><text font-family="Aptos,Aptos_MSFontService,sans-serif" font-weight="700" font-size="83" transform="matrix(1 0 0 1 1432.26 1825)">AI </text><text font-family="Aptos,Aptos_MSFontService,sans-serif" font-weight="700" font-size="83" transform="matrix(1 0 0 1 1365.23 1924)">Mode</text></g></svg>