<svg width="1067" height="993" xmlns="http://www.w3.org/2000/svg" xmlns:xlink="http://www.w3.org/1999/xlink" xml:space="preserve" overflow="hidden"><defs><clipPath id="clip0"><rect x="788" y="1236" width="1067" height="993"/></clipPath></defs><g clip-path="url(#clip0)" transform="translate(-788 -1236)"><path d="M1795 1743.62C1795 1708.39 1791.85 1674.52 1786 1642L1320 1642 1320 1834.4 1586.29 1834.4C1574.59 1896.27 1539.51 1948.67 1486.88 1983.89L1486.88 2109 1647.46 2109C1741.02 2022.29 1795 1894.92 1795 1743.62Z" fill="#4285F4" fill-rule="evenodd"/><path d="M1319.61 2229C1453.17 2229 1565.15 2184.73 1647 2108.85L1486.45 1983.73C1442.38 2013.55 1386.17 2031.61 1319.61 2031.61 1191 2031.61 1081.72 1944.44 1042.59 1827L878 1827 878 1955.28C959.397 2117.43 1126.24 2229 1319.61 2229Z" fill="#34A853" fill-rule="evenodd"/><path d="M1043 1826.82C1033.09 1797.04 1027.24 1765.45 1027.24 1732.5 1027.24 1699.55 1033.09 1667.96 1043 1638.18L1043 1510 878.149 1510C844.368 1576.79 825 1652.17 825 1732.5 825 1812.83 844.368 1888.2 878.149 1955L1006.52 1854.81 1043 1826.82Z" fill="#FBBC05" fill-rule="evenodd"/><path d="M1319.84 1433.62C1392.73 1433.62 1457.53 1458.88 1509.27 1507.61L1651 1365.49C1565.06 1285.18 1453.47 1236 1319.84 1236 1126.37 1236 959.44 1347.44 878 1509.86L1042.68 1638C1081.82 1520.69 1191.16 1433.62 1319.84 1433.62Z" fill="#EA4335" fill-rule="evenodd"/><text fill="#34A853" font-family="Aptos,Aptos_MSFontService,sans-serif" font-weight="700" font-size="285" transform="matrix(1 0 0 1 1190.27 1626)">AI </text><text fill="#EA4335" font-family="Aptos,Aptos_MSFontService,sans-serif" font-weight="700" font-size="285" transform="matrix(1 0 0 1 959.853 1966)">Mode</text></g></svg>