<svg width="1030" height="1030" xmlns="http://www.w3.org/2000/svg" xmlns:xlink="http://www.w3.org/1999/xlink" xml:space="preserve" overflow="hidden"><defs><linearGradient x1="303.084" y1="2625.56" x2="1258.76" y2="2738.24" gradientUnits="userSpaceOnUse" spreadMethod="reflect" id="fill0"><stop offset="0" stop-color="#0064E1"/><stop offset="0.4" stop-color="#0064E1"/><stop offset="0.83" stop-color="#0073EE"/><stop offset="1" stop-color="#0082FB"/></linearGradient><linearGradient x1="386.423" y1="2883.9" x2="386.423" y2="2414.9" gradientUnits="userSpaceOnUse" spreadMethod="reflect" id="fill1"><stop offset="0" stop-color="#0082FB"/><stop offset="0.5" stop-color="#0073ED"/><stop offset="1" stop-color="#0064E0"/></linearGradient></defs><g transform="translate(-224 -2167)"><path d="M350.855 2767.06C350.855 2797.76 359.152 2821.33 369.996 2835.59 384.215 2854.26 405.423 2862.18 427.044 2862.18 454.929 2862.18 480.441 2856.55 529.603 2801.34 568.989 2757.08 615.397 2694.95 646.622 2656.01L699.503 2590.03C736.237 2544.21 778.753 2493.27 827.502 2458.74 867.302 2430.56 910.239 2414.9 953.446 2414.9 1025.98 2414.9 1095.07 2449.04 1147.96 2513.06 1205.83 2583.18 1233.92 2671.5 1233.92 2762.64 1233.92 2816.82 1220.78 2856.64 1198.39 2888.09 1176.78 2918.51 1134.63 2948.9 1063.75 2948.9L1063.75 2862.18C1124.44 2862.18 1139.59 2816.88 1139.59 2765.05 1139.59 2691.18 1118.38 2609.21 1071.66 2550.64 1038.51 2509.09 995.541 2483.7 948.276 2483.7 897.153 2483.7 856.009 2515.02 809.776 2570.85 785.196 2600.52 759.955 2636.66 731.628 2677.45L700.435 2722.33C637.774 2812.55 621.903 2833.09 590.574 2867.01 535.662 2926.39 488.771 2948.9 427.044 2948.9 353.816 2948.9 307.51 2923.15 278.832 2884.35 255.422 2852.72 243.923 2811.23 243.923 2763.96Z" fill="#0081FB" fill-rule="evenodd"/><path d="M327.923 2519.18C376.964 2457.82 447.737 2414.9 528.911 2414.9 575.921 2414.9 622.656 2426.2 671.457 2458.54 724.839 2493.91 781.735 2552.15 852.711 2648.13L878.167 2682.57C939.603 2765.67 974.56 2808.41 995.015 2828.57 1021.32 2854.45 1039.75 2862.18 1063.69 2862.18 1124.4 2862.18 1139.55 2816.88 1139.55 2765.05L1233.92 2762.64C1233.92 2816.82 1220.76 2856.64 1198.38 2888.09 1176.76 2918.51 1134.6 2948.9 1063.69 2948.9 1019.61 2948.9 980.553 2941.13 937.368 2908.05 904.165 2882.67 865.349 2837.57 835.493 2797.03L746.677 2676.58C702.109 2616.15 661.229 2571.08 637.568 2550.67 612.117 2528.71 579.4 2502.21 527.19 2502.21 484.932 2502.21 449.046 2526.28 419.015 2563.1Z" fill="url(#fill0)" fill-rule="evenodd"/><path d="M527.203 2502.13C484.995 2502.13 449.151 2526.18 419.154 2562.96 376.739 2614.94 350.768 2692.37 350.768 2766.72 350.768 2797.4 359.058 2820.94 369.894 2835.19L278.804 2883.9C255.412 2852.31 243.923 2810.86 243.923 2763.63 243.923 2677.74 272.956 2588.22 328.167 2519.09 377.152 2457.77 447.843 2414.9 528.923 2414.9Z" fill="url(#fill1)" fill-rule="evenodd"/></g></svg>