<svg width="738" height="958" xmlns="http://www.w3.org/2000/svg" xmlns:xlink="http://www.w3.org/1999/xlink" xml:space="preserve" overflow="hidden"><defs><clipPath id="clip0"><rect x="232" y="765" width="738" height="958"/></clipPath></defs><g clip-path="url(#clip0)" transform="translate(-232 -765)"><path d="M850.121 801.697 601.027 1051.18 850.121 1051.18 850.121 801.697 850.121 870 850.121 801.697ZM601 1051.18 351.879 801.697 351.879 1051.18 601 1051.18ZM600.449 765 600.449 1710M850.121 1300.6 601.027 1051.13 601.027 1408.78 850.121 1658.26 850.121 1300.6ZM351.905 1300.6 601.027 1051.13 601.027 1408.78 351.905 1658.26 351.905 1300.6ZM245 1051.13 245 1407.34 351.879 1407.34 351.879 1300.6 601 1051.13 245 1051.13ZM601 1051.13 850.095 1300.6 850.095 1407.34 957 1407.34 957 1051.13 601 1051.13Z" stroke="#20808D" stroke-width="26.2167" stroke-miterlimit="8" fill="none" fill-rule="evenodd"/></g></svg>